<mxfile host="app.diagrams.net" modified="2023-01-05T01:40:09.057Z" agent="5.0 (Windows NT 10.0; Win64; x64) AppleWebKit/537.36 (KHTML, like Gecko) Chrome/108.0.0.0 Safari/537.36 Edg/108.0.1462.46" etag="AABpzajCv4pnvDNhmkrh" version="20.8.1" type="github">
  <diagram id="y_-26MBG5521PNUeK5f8" name="第 1 页">
    <mxGraphModel dx="1817" dy="1198" grid="1" gridSize="10" guides="1" tooltips="1" connect="1" arrows="1" fold="1" page="1" pageScale="1" pageWidth="1600" pageHeight="1200" math="0" shadow="0">
      <root>
        <mxCell id="0" />
        <mxCell id="1" parent="0" />
        <mxCell id="Fi8Dc3UV2Z1InRnC9Shg-1" value="用户端" style="text;html=1;strokeColor=#d79b00;fillColor=#ffe6cc;align=center;verticalAlign=middle;whiteSpace=wrap;rounded=0;" parent="1" vertex="1">
          <mxGeometry x="160" y="30" width="60" height="30" as="geometry" />
        </mxCell>
        <mxCell id="Fi8Dc3UV2Z1InRnC9Shg-2" value="管理端" style="text;html=1;strokeColor=#d79b00;fillColor=#ffe6cc;align=center;verticalAlign=middle;whiteSpace=wrap;rounded=0;" parent="1" vertex="1">
          <mxGeometry x="630" y="50" width="60" height="30" as="geometry" />
        </mxCell>
        <mxCell id="Fi8Dc3UV2Z1InRnC9Shg-3" value="基础库" style="shape=cylinder3;whiteSpace=wrap;html=1;boundedLbl=1;backgroundOutline=1;size=15;" parent="1" vertex="1">
          <mxGeometry x="460" y="280" width="60" height="80" as="geometry" />
        </mxCell>
        <mxCell id="Fi8Dc3UV2Z1InRnC9Shg-4" value="管理库" style="shape=cylinder3;whiteSpace=wrap;html=1;boundedLbl=1;backgroundOutline=1;size=15;" parent="1" vertex="1">
          <mxGeometry x="740" y="290" width="60" height="80" as="geometry" />
        </mxCell>
        <mxCell id="Fi8Dc3UV2Z1InRnC9Shg-5" value="租户1" style="shape=cylinder3;whiteSpace=wrap;html=1;boundedLbl=1;backgroundOutline=1;size=15;" parent="1" vertex="1">
          <mxGeometry x="120" y="280" width="60" height="80" as="geometry" />
        </mxCell>
        <mxCell id="Fi8Dc3UV2Z1InRnC9Shg-6" value="租户2" style="shape=cylinder3;whiteSpace=wrap;html=1;boundedLbl=1;backgroundOutline=1;size=15;" parent="1" vertex="1">
          <mxGeometry x="200" y="280" width="60" height="80" as="geometry" />
        </mxCell>
        <mxCell id="Fi8Dc3UV2Z1InRnC9Shg-7" value="" style="endArrow=none;html=1;rounded=0;fillColor=#ffe6cc;strokeColor=#d79b00;" parent="1" edge="1">
          <mxGeometry width="50" height="50" relative="1" as="geometry">
            <mxPoint x="70" y="240" as="sourcePoint" />
            <mxPoint x="560" y="240" as="targetPoint" />
          </mxGeometry>
        </mxCell>
        <mxCell id="Fi8Dc3UV2Z1InRnC9Shg-8" value="" style="endArrow=none;html=1;rounded=0;fillColor=#ffe6cc;strokeColor=#d79b00;" parent="1" edge="1">
          <mxGeometry width="50" height="50" relative="1" as="geometry">
            <mxPoint x="70" y="400" as="sourcePoint" />
            <mxPoint x="560" y="400" as="targetPoint" />
          </mxGeometry>
        </mxCell>
        <mxCell id="Fi8Dc3UV2Z1InRnC9Shg-9" value="" style="endArrow=none;html=1;rounded=0;fillColor=#ffe6cc;strokeColor=#d79b00;" parent="1" edge="1">
          <mxGeometry width="50" height="50" relative="1" as="geometry">
            <mxPoint x="70" y="400" as="sourcePoint" />
            <mxPoint x="70" y="240" as="targetPoint" />
          </mxGeometry>
        </mxCell>
        <mxCell id="Fi8Dc3UV2Z1InRnC9Shg-10" value="" style="endArrow=none;html=1;rounded=0;fillColor=#ffe6cc;strokeColor=#d79b00;" parent="1" edge="1">
          <mxGeometry width="50" height="50" relative="1" as="geometry">
            <mxPoint x="560" y="400" as="sourcePoint" />
            <mxPoint x="560" y="240" as="targetPoint" />
          </mxGeometry>
        </mxCell>
        <mxCell id="Fi8Dc3UV2Z1InRnC9Shg-11" value="" style="endArrow=none;html=1;rounded=0;fillColor=#d5e8d4;strokeColor=#82b366;" parent="1" edge="1">
          <mxGeometry width="50" height="50" relative="1" as="geometry">
            <mxPoint x="430" y="260" as="sourcePoint" />
            <mxPoint x="920" y="260" as="targetPoint" />
          </mxGeometry>
        </mxCell>
        <mxCell id="Fi8Dc3UV2Z1InRnC9Shg-12" value="" style="endArrow=none;html=1;rounded=0;fillColor=#d5e8d4;strokeColor=#82b366;" parent="1" edge="1">
          <mxGeometry width="50" height="50" relative="1" as="geometry">
            <mxPoint x="430" y="380" as="sourcePoint" />
            <mxPoint x="920" y="380" as="targetPoint" />
          </mxGeometry>
        </mxCell>
        <mxCell id="Fi8Dc3UV2Z1InRnC9Shg-13" value="" style="endArrow=none;html=1;rounded=0;fillColor=#d5e8d4;strokeColor=#82b366;" parent="1" edge="1">
          <mxGeometry width="50" height="50" relative="1" as="geometry">
            <mxPoint x="430" y="380" as="sourcePoint" />
            <mxPoint x="430" y="260" as="targetPoint" />
          </mxGeometry>
        </mxCell>
        <mxCell id="Fi8Dc3UV2Z1InRnC9Shg-14" value="" style="endArrow=none;html=1;rounded=0;fillColor=#d5e8d4;strokeColor=#82b366;" parent="1" edge="1">
          <mxGeometry x="0.3333" y="-410" width="50" height="50" relative="1" as="geometry">
            <mxPoint x="920" y="380" as="sourcePoint" />
            <mxPoint x="920" y="260" as="targetPoint" />
            <mxPoint as="offset" />
          </mxGeometry>
        </mxCell>
        <mxCell id="IwHr58wA1ZAovdP9Hp9E-1" value="&lt;h1&gt;用户端&lt;/h1&gt;&lt;p&gt;登录时不需要带上租户标识，直接从基础库获取租户标识和租户的菜单权限等&lt;/p&gt;" style="text;html=1;strokeColor=none;fillColor=none;spacing=5;spacingTop=-20;whiteSpace=wrap;overflow=hidden;rounded=0;" vertex="1" parent="1">
          <mxGeometry x="105" y="90" width="190" height="120" as="geometry" />
        </mxCell>
        <mxCell id="IwHr58wA1ZAovdP9Hp9E-2" value="用户端" style="text;html=1;strokeColor=#d79b00;fillColor=#ffe6cc;align=center;verticalAlign=middle;whiteSpace=wrap;rounded=0;" vertex="1" parent="1">
          <mxGeometry x="180" y="540" width="60" height="30" as="geometry" />
        </mxCell>
        <mxCell id="IwHr58wA1ZAovdP9Hp9E-3" value="管理端" style="text;html=1;strokeColor=#d79b00;fillColor=#ffe6cc;align=center;verticalAlign=middle;whiteSpace=wrap;rounded=0;" vertex="1" parent="1">
          <mxGeometry x="650" y="560" width="60" height="30" as="geometry" />
        </mxCell>
        <mxCell id="IwHr58wA1ZAovdP9Hp9E-5" value="管理库" style="shape=cylinder3;whiteSpace=wrap;html=1;boundedLbl=1;backgroundOutline=1;size=15;" vertex="1" parent="1">
          <mxGeometry x="502.5" y="790" width="60" height="80" as="geometry" />
        </mxCell>
        <mxCell id="IwHr58wA1ZAovdP9Hp9E-6" value="租户1" style="shape=cylinder3;whiteSpace=wrap;html=1;boundedLbl=1;backgroundOutline=1;size=15;" vertex="1" parent="1">
          <mxGeometry x="110" y="790" width="60" height="80" as="geometry" />
        </mxCell>
        <mxCell id="IwHr58wA1ZAovdP9Hp9E-7" value="租户2" style="shape=cylinder3;whiteSpace=wrap;html=1;boundedLbl=1;backgroundOutline=1;size=15;" vertex="1" parent="1">
          <mxGeometry x="200" y="790" width="60" height="80" as="geometry" />
        </mxCell>
        <mxCell id="IwHr58wA1ZAovdP9Hp9E-8" value="" style="endArrow=none;html=1;rounded=0;fillColor=#ffe6cc;strokeColor=#d79b00;" edge="1" parent="1">
          <mxGeometry width="50" height="50" relative="1" as="geometry">
            <mxPoint x="90" y="750" as="sourcePoint" />
            <mxPoint x="430" y="750" as="targetPoint" />
          </mxGeometry>
        </mxCell>
        <mxCell id="IwHr58wA1ZAovdP9Hp9E-9" value="" style="endArrow=none;html=1;rounded=0;fillColor=#ffe6cc;strokeColor=#d79b00;" edge="1" parent="1">
          <mxGeometry width="50" height="50" relative="1" as="geometry">
            <mxPoint x="90" y="910" as="sourcePoint" />
            <mxPoint x="430" y="910" as="targetPoint" />
          </mxGeometry>
        </mxCell>
        <mxCell id="IwHr58wA1ZAovdP9Hp9E-10" value="" style="endArrow=none;html=1;rounded=0;fillColor=#ffe6cc;strokeColor=#d79b00;" edge="1" parent="1">
          <mxGeometry width="50" height="50" relative="1" as="geometry">
            <mxPoint x="90" y="910" as="sourcePoint" />
            <mxPoint x="90" y="750" as="targetPoint" />
          </mxGeometry>
        </mxCell>
        <mxCell id="IwHr58wA1ZAovdP9Hp9E-11" value="" style="endArrow=none;html=1;rounded=0;fillColor=#ffe6cc;strokeColor=#d79b00;" edge="1" parent="1">
          <mxGeometry x="0.25" y="140" width="50" height="50" relative="1" as="geometry">
            <mxPoint x="430" y="910" as="sourcePoint" />
            <mxPoint x="430" y="750" as="targetPoint" />
            <mxPoint as="offset" />
          </mxGeometry>
        </mxCell>
        <mxCell id="IwHr58wA1ZAovdP9Hp9E-12" value="" style="endArrow=none;html=1;rounded=0;fillColor=#d5e8d4;strokeColor=#82b366;" edge="1" parent="1">
          <mxGeometry width="50" height="50" relative="1" as="geometry">
            <mxPoint x="489" y="770" as="sourcePoint" />
            <mxPoint x="979" y="770" as="targetPoint" />
          </mxGeometry>
        </mxCell>
        <mxCell id="IwHr58wA1ZAovdP9Hp9E-13" value="" style="endArrow=none;html=1;rounded=0;fillColor=#d5e8d4;strokeColor=#82b366;" edge="1" parent="1">
          <mxGeometry width="50" height="50" relative="1" as="geometry">
            <mxPoint x="489" y="890" as="sourcePoint" />
            <mxPoint x="979" y="890" as="targetPoint" />
          </mxGeometry>
        </mxCell>
        <mxCell id="IwHr58wA1ZAovdP9Hp9E-14" value="" style="endArrow=none;html=1;rounded=0;fillColor=#d5e8d4;strokeColor=#82b366;" edge="1" parent="1">
          <mxGeometry width="50" height="50" relative="1" as="geometry">
            <mxPoint x="489" y="890" as="sourcePoint" />
            <mxPoint x="489" y="770" as="targetPoint" />
          </mxGeometry>
        </mxCell>
        <mxCell id="IwHr58wA1ZAovdP9Hp9E-15" value="" style="endArrow=none;html=1;rounded=0;fillColor=#d5e8d4;strokeColor=#82b366;" edge="1" parent="1">
          <mxGeometry x="0.3333" y="-410" width="50" height="50" relative="1" as="geometry">
            <mxPoint x="979" y="890" as="sourcePoint" />
            <mxPoint x="979" y="770" as="targetPoint" />
            <mxPoint as="offset" />
          </mxGeometry>
        </mxCell>
        <mxCell id="IwHr58wA1ZAovdP9Hp9E-16" value="&lt;h1&gt;用户端&lt;/h1&gt;&lt;p&gt;只有租户的数据库源，登录时需要带上租户标识登录&lt;/p&gt;" style="text;html=1;strokeColor=none;fillColor=none;spacing=5;spacingTop=-20;whiteSpace=wrap;overflow=hidden;rounded=0;" vertex="1" parent="1">
          <mxGeometry x="150" y="600" width="190" height="120" as="geometry" />
        </mxCell>
        <mxCell id="IwHr58wA1ZAovdP9Hp9E-17" value="" style="endArrow=none;html=1;rounded=0;" edge="1" parent="1">
          <mxGeometry width="50" height="50" relative="1" as="geometry">
            <mxPoint x="10" y="470" as="sourcePoint" />
            <mxPoint x="1290" y="470" as="targetPoint" />
          </mxGeometry>
        </mxCell>
        <mxCell id="IwHr58wA1ZAovdP9Hp9E-18" value="。。。" style="text;html=1;strokeColor=none;fillColor=none;align=center;verticalAlign=middle;whiteSpace=wrap;rounded=0;" vertex="1" parent="1">
          <mxGeometry x="270" y="305" width="60" height="30" as="geometry" />
        </mxCell>
        <mxCell id="IwHr58wA1ZAovdP9Hp9E-19" value="&lt;h1&gt;基础库&lt;/h1&gt;&lt;p&gt;包含租户所有账号信息，包括租户菜单，租户下的子账号.&lt;br&gt;&lt;br&gt;&lt;/p&gt;&lt;p&gt;用途：&lt;/p&gt;&lt;p&gt;1，管理端操作租户数据，计价等&lt;/p&gt;&lt;p&gt;2，租户直接根据基础数据展示用户权限&lt;/p&gt;&lt;p&gt;&lt;br&gt;&lt;/p&gt;" style="text;html=1;strokeColor=none;fillColor=none;spacing=5;spacingTop=-20;whiteSpace=wrap;overflow=hidden;rounded=0;" vertex="1" parent="1">
          <mxGeometry x="390" y="60" width="285" height="170" as="geometry" />
        </mxCell>
        <mxCell id="IwHr58wA1ZAovdP9Hp9E-20" value="&lt;h1&gt;管理库&lt;/h1&gt;&lt;p&gt;另一套用户和菜单逻辑&lt;/p&gt;" style="text;html=1;strokeColor=none;fillColor=none;spacing=5;spacingTop=-20;whiteSpace=wrap;overflow=hidden;rounded=0;" vertex="1" parent="1">
          <mxGeometry x="790" y="160" width="190" height="90" as="geometry" />
        </mxCell>
        <mxCell id="IwHr58wA1ZAovdP9Hp9E-21" value="租户2" style="shape=cylinder3;whiteSpace=wrap;html=1;boundedLbl=1;backgroundOutline=1;size=15;" vertex="1" parent="1">
          <mxGeometry x="680" y="790" width="60" height="80" as="geometry" />
        </mxCell>
        <mxCell id="IwHr58wA1ZAovdP9Hp9E-22" value="。。。" style="text;html=1;strokeColor=none;fillColor=none;align=center;verticalAlign=middle;whiteSpace=wrap;rounded=0;" vertex="1" parent="1">
          <mxGeometry x="280" y="815" width="60" height="30" as="geometry" />
        </mxCell>
        <mxCell id="IwHr58wA1ZAovdP9Hp9E-23" value="。。。" style="text;html=1;strokeColor=none;fillColor=none;align=center;verticalAlign=middle;whiteSpace=wrap;rounded=0;" vertex="1" parent="1">
          <mxGeometry x="770" y="815" width="60" height="30" as="geometry" />
        </mxCell>
        <mxCell id="IwHr58wA1ZAovdP9Hp9E-24" value="租户1" style="shape=cylinder3;whiteSpace=wrap;html=1;boundedLbl=1;backgroundOutline=1;size=15;" vertex="1" parent="1">
          <mxGeometry x="600" y="790" width="60" height="80" as="geometry" />
        </mxCell>
        <mxCell id="IwHr58wA1ZAovdP9Hp9E-25" value="&lt;h1&gt;租户库&lt;/h1&gt;&lt;p&gt;租户的菜单权限，等直接写入具体租户库&lt;/p&gt;" style="text;html=1;strokeColor=none;fillColor=none;spacing=5;spacingTop=-20;whiteSpace=wrap;overflow=hidden;rounded=0;" vertex="1" parent="1">
          <mxGeometry x="710" y="620" width="190" height="120" as="geometry" />
        </mxCell>
        <mxCell id="IwHr58wA1ZAovdP9Hp9E-26" value="方案一" style="text;html=1;strokeColor=#b85450;fillColor=#f8cecc;align=center;verticalAlign=middle;whiteSpace=wrap;rounded=0;" vertex="1" parent="1">
          <mxGeometry x="10" y="20" width="60" height="30" as="geometry" />
        </mxCell>
        <mxCell id="IwHr58wA1ZAovdP9Hp9E-27" value="方案二" style="text;html=1;strokeColor=#b85450;fillColor=#f8cecc;align=center;verticalAlign=middle;whiteSpace=wrap;rounded=0;" vertex="1" parent="1">
          <mxGeometry x="20" y="490" width="60" height="30" as="geometry" />
        </mxCell>
      </root>
    </mxGraphModel>
  </diagram>
</mxfile>
